<?xml version="1.0" encoding="utf-8"?><svg xmlns="http://www.w3.org/2000/svg" xmlns:xlink="http://www.w3.org/1999/xlink"><symbol viewBox="0 0 480 480" id="24-hours" xmlns="http://www.w3.org/2000/svg"><path d="M472 432h-24V280a8 8 0 0 0-14.552-4.584l-112 160A7.999 7.999 0 0 0 328 448h104v24a8 8 0 0 0 16 0v-24h24a8 8 0 0 0 0-16zm-40 0h-88.64L432 305.376V432z"/><path d="M328 464h-94.712l88.056-103.688c.2-.238.387-.486.56-.744 16.566-24.518 11.048-57.713-12.56-75.552-28.705-20.625-68.695-14.074-89.319 14.631A63.997 63.997 0 0 0 208 336a8 8 0 0 0 16 0c-.003-26.51 21.486-48.002 47.995-48.005A47.999 47.999 0 0 1 300 297.008c16.537 12.671 20.388 36.007 8.8 53.32l-98.896 116.496A8 8 0 0 0 216 480h112a8 8 0 0 0 0-16z"/><path d="M216.176 424.152a8 8 0 0 0-7.693-8.296h-.003C104.11 411.982 20.341 328.363 16.28 224H48a8 8 0 0 0 0-16H16.28C20.283 103.821 103.82 20.287 208 16.288V40a8 8 0 0 0 16 0V16.288c102.754 3.974 185.686 85.34 191.616 188l-31.2-31.2a8 8 0 0 0-11.312 11.312l44.656 44.656a7.863 7.863 0 0 0 3.152 2.296c.313.094.631.172.952.232a7.914 7.914 0 0 0 1.696.408h.456a7.708 7.708 0 0 0 1.792-.352c.329-.04.655-.101.976-.184a7.88 7.88 0 0 0 2.888-1.808l45.264-45.248a8 8 0 0 0-11.312-11.312l-31.976 31.952C425.933 90.37 331.38.281 216.568.112 216.368.104 216.2 0 216 0s-.368.104-.568.112C96.582.275.275 96.582.112 215.432c0 .2-.112.368-.112.568s.104.368.112.568c.199 115.917 91.939 210.97 207.776 215.28h.296a8 8 0 0 0 7.992-7.696z"/><path d="M323.48 108.52a8 8 0 0 0-11.312 0L226.2 194.48a25.055 25.055 0 0 0-20.408 0l-40.704-40.704a8 8 0 0 0-11.312 11.312l40.624 40.624c-5.704 11.94-.648 26.244 11.293 31.947a23.96 23.96 0 0 0 27.275-4.683 23.737 23.737 0 0 0 4.624-27.256l85.888-85.888a8 8 0 0 0 0-11.312zM221.658 221.654l-.002.002a8.185 8.185 0 0 1-11.312 0 8 8 0 1 1 11.314-.002z"/></symbol><symbol viewBox="0 0 444.822 444.822" id="arrow-left" xmlns="http://www.w3.org/2000/svg"><path d="M423.265 178.298c-6.19-7.139-14.229-10.707-24.126-10.707H198.148L281.8 83.937c7.234-7.229 10.848-15.891 10.848-25.981 0-10.085-3.613-18.747-10.848-25.979l-21.413-21.129C253.156 3.619 244.59 0 234.693 0c-10.089 0-18.752 3.615-25.981 10.848L22.848 196.428c-7.043 7.423-10.564 16.084-10.564 25.981 0 10.089 3.521 18.654 10.564 25.693l185.864 186.152c7.422 7.043 16.083 10.567 25.981 10.567 10.085 0 18.65-3.524 25.693-10.567l21.413-21.693c7.234-6.851 10.848-15.42 10.848-25.693 0-10.284-3.613-18.853-10.848-25.7l-83.652-83.939h200.991c9.896 0 17.936-3.569 24.126-10.707 6.184-7.139 9.274-15.749 9.274-25.838v-36.545c.004-10.089-3.09-18.702-9.273-25.841z"/></symbol><symbol viewBox="0 0 451.846 451.847" id="arrow-point" xmlns="http://www.w3.org/2000/svg"><path d="M345.441 248.292L151.154 442.573c-12.359 12.365-32.397 12.365-44.75 0-12.354-12.354-12.354-32.391 0-44.744L278.318 225.92 106.409 54.017c-12.354-12.359-12.354-32.394 0-44.748 12.354-12.359 32.391-12.359 44.75 0l194.287 194.284c6.177 6.18 9.262 14.271 9.262 22.366 0 8.099-3.091 16.196-9.267 22.373z"/></symbol><symbol viewBox="0 0 444.815 444.815" id="arrow-right" xmlns="http://www.w3.org/2000/svg"><path d="M421.976 196.712L236.111 10.848C228.884 3.615 220.219 0 210.131 0c-9.9 0-18.464 3.615-25.697 10.848L163.023 32.26c-7.234 6.853-10.85 15.418-10.85 25.697 0 10.277 3.616 18.842 10.85 25.697l83.653 83.937H45.677c-9.895 0-17.937 3.568-24.123 10.707s-9.279 15.752-9.279 25.837v36.546c0 10.088 3.094 18.698 9.279 25.837s14.228 10.704 24.123 10.704h200.995L163.02 360.88c-7.234 7.228-10.85 15.89-10.85 25.981 0 10.089 3.616 18.75 10.85 25.978l21.411 21.412c7.426 7.043 15.99 10.564 25.697 10.564 9.899 0 18.562-3.521 25.981-10.564l185.864-185.864c7.043-7.043 10.567-15.701 10.567-25.981 0-10.467-3.524-19.036-10.564-25.694z"/></symbol><symbol viewBox="0 -31 512.00029 512" id="basket" xmlns="http://www.w3.org/2000/svg"><path d="M15 30h92c8.27 0 15 6.73 15 15 0 1.293-1.898-16.262 28.586 258.113C133.87 309.687 122 325.977 122 345c0 24.813 20.188 44.988 45 44.988h17.578A44.883 44.883 0 0 0 182 405c0 24.813 20.188 45 45 45s45-20.188 45-45c0-5.258-.914-10.316-2.578-15.012h95.16A44.787 44.787 0 0 0 362 405c0 24.813 20.188 45 45 45s45-20.188 45-45-20.187-45-45-45H167c-8.27 0-15-6.73-15-15s6.73-15 15-15h274.586c22.09 0 40.758-15.813 44.387-37.602l25.824-154.933A15 15 0 0 0 497 120h-45V45c0-8.285-6.715-15-15-15H317c-8.285 0-15 6.715-15 15v15h-75c-8.285 0-15 6.715-15 15v45h-51.574l-8.434-75.914C151.5 19.696 131.508 0 107 0H15C6.715 0 0 6.715 0 15s6.715 15 15 15zm227 375c0 8.27-6.73 15-15 15s-15-6.73-15-15 6.73-15.012 15-15.012 15 6.742 15 15.012zm165 15c-8.27 0-15-6.73-15-15 0-8.297 6.73-15 15-15s15 6.73 15 15-6.73 15-15 15zM332 60h90v60h-90zm-90 30h60v30h-60zm237.293 60l-22.91 137.465A14.952 14.952 0 0 1 441.586 300h-261.16l-16.668-150zm0 0"/><path d="M227 270c8.285 0 15-6.715 15-15v-60c0-8.285-6.715-15-15-15s-15 6.715-15 15v60c0 8.285 6.715 15 15 15zm90 0c8.285 0 15-6.715 15-15v-60c0-8.285-6.715-15-15-15s-15 6.715-15 15v60c0 8.285 6.715 15 15 15zm90 0c8.285 0 15-6.715 15-15v-60c0-8.285-6.715-15-15-15s-15 6.715-15 15v60c0 8.285 6.715 15 15 15zm0 0"/></symbol><symbol viewBox="0 0 475.2 475.2" id="cancel" xmlns="http://www.w3.org/2000/svg"><path d="M405.6 69.6C360.7 24.7 301.1 0 237.6 0s-123.1 24.7-168 69.6S0 174.1 0 237.6s24.7 123.1 69.6 168 104.5 69.6 168 69.6 123.1-24.7 168-69.6 69.6-104.5 69.6-168-24.7-123.1-69.6-168zm-19.1 316.9c-39.8 39.8-92.7 61.7-148.9 61.7s-109.1-21.9-148.9-61.7c-82.1-82.1-82.1-215.7 0-297.8C128.5 48.9 181.4 27 237.6 27s109.1 21.9 148.9 61.7c82.1 82.1 82.1 215.7 0 297.8z"/><path d="M342.3 132.9c-5.3-5.3-13.8-5.3-19.1 0l-85.6 85.6-85.6-85.6c-5.3-5.3-13.8-5.3-19.1 0-5.3 5.3-5.3 13.8 0 19.1l85.6 85.6-85.6 85.6c-5.3 5.3-5.3 13.8 0 19.1 2.6 2.6 6.1 4 9.5 4s6.9-1.3 9.5-4l85.6-85.6 85.6 85.6c2.6 2.6 6.1 4 9.5 4 3.5 0 6.9-1.3 9.5-4 5.3-5.3 5.3-13.8 0-19.1l-85.4-85.6 85.6-85.6c5.3-5.3 5.3-13.8 0-19.1z"/></symbol><symbol viewBox="0 0 459 459" id="check-box" xmlns="http://www.w3.org/2000/svg"><path d="M124.95 181.05l-35.7 35.7L204 331.5l255-255-35.7-35.7L204 260.1l-79.05-79.05zM408 408H51V51h255V0H51C22.95 0 0 22.95 0 51v357c0 28.05 22.95 51 51 51h357c28.05 0 51-22.95 51-51V204h-51v204z"/></symbol><symbol viewBox="0 0 21.9 21.9" id="close" xmlns="http://www.w3.org/2000/svg"><path d="M14.1 11.3c-.2-.2-.2-.5 0-.7l7.5-7.5c.2-.2.3-.5.3-.7s-.1-.5-.3-.7L20.2.3c-.2-.2-.5-.3-.7-.3-.3 0-.5.1-.7.3l-7.5 7.5c-.2.2-.5.2-.7 0L3.1.3C2.9.1 2.6 0 2.4 0s-.5.1-.7.3L.3 1.7c-.2.2-.3.5-.3.7s.1.5.3.7l7.5 7.5c.2.2.2.5 0 .7L.3 18.8c-.2.2-.3.5-.3.7s.1.5.3.7l1.4 1.4c.2.2.5.3.7.3s.5-.1.7-.3l7.5-7.5c.2-.2.5-.2.7 0l7.5 7.5c.2.2.5.3.7.3s.5-.1.7-.3l1.4-1.4c.2-.2.3-.5.3-.7s-.1-.5-.3-.7l-7.5-7.5z"/></symbol><symbol viewBox="0 0 56 56" id="controls" xmlns="http://www.w3.org/2000/svg"><path d="M8 41.08V2a1 1 0 1 0-2 0v39.08c-3.387.488-6 3.401-6 6.92 0 3.859 3.14 7 7 7s7-3.141 7-7c0-3.519-2.613-6.432-6-6.92zm21-20.385V2a1 1 0 1 0-2 0v18.632c-3.602.396-6.414 3.456-6.414 7.161s2.812 6.765 6.414 7.161V54a1 1 0 1 0 2 0V34.891c3.4-.577 6-3.536 6-7.098s-2.6-6.521-6-7.098zM56 8c0-3.859-3.14-7-7-7s-7 3.141-7 7c0 3.519 2.613 6.432 6 6.92V54a1 1 0 1 0 2 0V14.92c3.387-.488 6-3.401 6-6.92z"/></symbol><symbol viewBox="0 0 512 512" id="credit-card" xmlns="http://www.w3.org/2000/svg"><path d="M498.409 175.706L336.283 13.582C327.531 4.831 315.86.011 303.418.011c-12.441 0-24.113 4.818-32.865 13.569L13.571 270.563C4.82 279.315 0 290.985 0 303.427c0 12.442 4.82 24.114 13.571 32.864l19.992 19.992.005.005.006.006 134.36 134.36H149.33c-5.89 0-10.666 4.775-10.666 10.666 0 5.89 4.776 10.666 10.666 10.666h59.189l.041.001.041-.001 154.053.002c5.89 0 10.666-4.776 10.666-10.666 0-5.891-4.776-10.666-10.666-10.666l-113.464-.002 249.22-249.22c18.12-18.122 18.12-47.608-.001-65.728zm-15.084 50.644L226.341 483.334c-4.713 4.712-11.013 7.31-17.742 7.32h-.081c-6.727-.011-13.025-2.608-17.736-7.32L56.195 348.746 302.99 101.949c4.165-4.165 4.165-10.919 0-15.084-4.166-4.165-10.918-4.165-15.085.001L41.11 333.663l-12.456-12.456c-4.721-4.721-7.321-11.035-7.321-17.779s2.6-13.059 7.322-17.781L285.637 28.665c4.722-4.721 11.037-7.321 17.781-7.321 6.744 0 13.059 2.6 17.781 7.322l57.703 57.702-246.798 246.8c-4.165 4.164-4.165 10.918 0 15.085a10.636 10.636 0 0 0 7.542 3.123c2.729 0 5.459-1.042 7.542-3.124l246.798-246.799 89.339 89.336c9.803 9.804 9.802 25.757 0 35.561z"/><path d="M262.801 308.064c-4.165-4.165-10.917-4.164-15.085 0l-83.934 83.933c-4.165 4.165-4.165 10.918 0 15.085a10.633 10.633 0 0 0 7.542 3.124c2.729 0 5.459-1.042 7.542-3.124l83.934-83.933c4.166-4.167 4.166-10.92.001-15.085zm-34.426 79.677l-34.425 34.425c-4.165 4.165-4.165 10.919 0 15.085a10.637 10.637 0 0 0 7.542 3.124c2.731 0 5.459-1.042 7.542-3.124l34.425-34.425c4.165-4.165 4.165-10.919 0-15.085s-10.916-4.166-15.084 0zm31.679-31.676l-4.525 4.524c-4.166 4.165-4.166 10.918-.001 15.085a10.632 10.632 0 0 0 7.542 3.125 10.63 10.63 0 0 0 7.541-3.125l4.525-4.524c4.166-4.165 4.166-10.918.001-15.084-4.163-4.165-10.918-4.166-15.083-.001zm147.019-192.272a10.666 10.666 0 0 0-15.084 0l-45.255 45.254a10.668 10.668 0 0 0 0 15.084l30.17 30.167a10.633 10.633 0 0 0 7.542 3.124c2.731 0 5.459-1.042 7.542-3.124l45.253-45.252c4.165-4.165 4.165-10.919 0-15.084l-30.168-30.169zm-22.628 67.88l-15.085-15.084 30.17-30.169 15.084 15.085-30.169 30.168zM320.339 80.186c2.731 0 5.461-1.042 7.543-3.126l4.525-4.527c4.164-4.166 4.163-10.92-.003-15.084-4.165-4.164-10.92-4.163-15.084.003l-4.525 4.527c-4.164 4.166-4.163 10.92.003 15.084a10.628 10.628 0 0 0 7.541 3.123zM107.215 358.057l-4.525 4.525c-4.165 4.164-4.165 10.918 0 15.085 2.083 2.082 4.813 3.123 7.542 3.123s5.459-1.041 7.542-3.123l4.525-4.525c4.165-4.166 4.165-10.92 0-15.085-4.166-4.166-10.918-4.166-15.084 0z"/></symbol><symbol viewBox="0 0 511.846 511.846" id="discount" xmlns="http://www.w3.org/2000/svg"><path d="M468.881 0H332.348c-26.402 0-46.071 8.405-65.766 28.1a8.525 8.525 0 0 0 0 12.066 8.523 8.523 0 0 0 12.066 0c16.623-16.623 31.684-23.1 53.7-23.1h136.533c14.114 0 25.6 11.486 25.6 25.6V179.2c0 22.025-6.477 37.077-23.108 53.7L217.95 486.682c-9.677 9.668-26.547 9.66-36.198 0L24.866 329.796c-4.838-4.838-7.501-11.264-7.501-18.108 0-6.835 2.662-13.261 7.501-18.091L253.918 64.87c3.516.896 7.049 1.792 10.701 2.773 34.722 9.301 62.114 18.91 82.534 27.494-4.019 7.432-6.272 15.77-6.272 24.329 0 28.237 22.963 51.2 51.2 51.2s51.2-22.963 51.2-51.2c0-28.237-22.963-51.2-51.2-51.2-4.719 0-8.533 3.823-8.533 8.533s3.814 8.533 8.533 8.533c18.825 0 34.133 15.309 34.133 34.133 0 18.825-15.309 34.133-34.133 34.133s-34.133-15.309-34.133-34.133a34.065 34.065 0 0 1 4.779-17.365c14.78 7.074 24.021 13.039 27.674 16.845-1.562.444-3.977.939-7.62 1.254-4.693.418-8.166 4.557-7.748 9.25.393 4.437 4.113 7.791 8.491 7.791.247 0 .503-.017.759-.034 5.248-.469 21.214-1.877 24.286-13.321 8.405-31.394-114.756-66.091-139.529-72.73C231.143 41 194.74 34.054 166.546 31.597c-34.671-3.038-51.541.913-54.707 12.774-1.527 5.692-5.572 20.804 63.607 48.085 4.403 1.724 9.344-.418 11.076-4.813 1.724-4.378-.427-9.336-4.804-11.059-33.425-13.184-47.275-22.844-51.729-27.392 10.539-3.089 46.524-2.193 104.465 10.982L12.8 281.523C4.736 289.587.299 300.296.299 311.688c0 11.401 4.437 22.118 12.501 30.174l156.885 156.885c8.055 8.055 18.765 12.493 30.165 12.493 11.392 0 22.101-4.437 30.174-12.501l253.423-253.773c19.703-19.695 28.1-39.364 28.1-65.766V42.667C511.548 19.14 492.407 0 468.881 0zm-25.813 312.107a8.519 8.519 0 0 0-11.682 3.046l-97.809 166.835c-7.066 12.228-22.741 16.444-34.594 9.6L279.92 479.24c-3.951-2.569-9.242-1.434-11.793 2.517-2.569 3.951-1.434 9.242 2.517 11.802l19.43 12.578a42.333 42.333 0 0 0 21.265 5.709c14.754 0 29.107-7.637 36.983-21.274l97.783-166.793c2.381-4.061 1.025-9.291-3.037-11.672z"/><path d="M204.348 247.467v119.467c0 4.71 3.814 8.533 8.533 8.533s8.533-3.823 8.533-8.533V247.467c0-4.71-3.814-8.533-8.533-8.533s-8.533 3.822-8.533 8.533zm51.2 25.6c0 9.412 7.654 17.067 17.067 17.067s17.067-7.654 17.067-17.067c0-9.412-7.654-17.067-17.067-17.067s-17.067 7.654-17.067 17.067zm-119.467 51.2c0 9.412 7.654 17.067 17.067 17.067 9.412 0 17.067-7.654 17.067-17.067S162.56 307.2 153.148 307.2c-9.413 0-17.067 7.654-17.067 17.067z"/></symbol><symbol viewBox="0 0 512.171 512.171" id="down-arrow" xmlns="http://www.w3.org/2000/svg"><path d="M479.046 283.925c-1.664-3.989-5.547-6.592-9.856-6.592H352.305V10.667C352.305 4.779 347.526 0 341.638 0H170.971c-5.888 0-10.667 4.779-10.667 10.667v266.667H42.971a10.702 10.702 0 0 0-9.856 6.571c-1.643 3.989-.747 8.576 2.304 11.627l212.8 213.504c2.005 2.005 4.715 3.136 7.552 3.136s5.547-1.131 7.552-3.115l213.419-213.504a10.645 10.645 0 0 0 2.304-11.628z"/></symbol><symbol viewBox="0 0 455 455" id="en-color" xmlns="http://www.w3.org/2000/svg"><g fill-rule="evenodd" clip-rule="evenodd"><path d="M296.7 201.667c-10.24 0-18.762 7.406-20.491 17.154-.338 1.894 1.074 3.653 2.996 3.653h34.99c1.922 0 3.334-1.76 2.996-3.653-1.739-9.748-10.24-17.154-20.491-17.154z"/><path d="M0 0v455h455V0H0zm166.845 70v73.075H94.587L166.845 70zm192.894 206.46c-2.168 42.467-15.18 88.349-37.81 101.056-22.631 12.707-72.237 6.825-78.742 0 0 0-16.411-10.845-16.411-40.298s30.671-30.689 39.971-30.689c4.285 0 7.058.131 8.808.275a2.606 2.606 0 0 1 2.362 2.905l-1.883 15.939a2.59 2.59 0 0 1-2.792 2.292c-5.709-.44-19.202-.225-19.202 11.757 0 15.19 13.637 13.021 20.143 13.021 6.519 0 23.254 2.478 30.692-12.092 7.438-14.567 4.657-40.922 4.657-40.922s-2.488-8.286-14.109-10.609c-11.623-2.331-36.042-1.637-47.43-7.907-8.347-4.604-14.067-15.562-16.531-21.096-.492-1.074-2.045-.972-2.383.165-2.027 6.772-6.836 21.606-11.775 28.133-6.508 8.603-46.346 4.808-63.707 1.084-17.359-3.714-31.928-6.199-43.713-39.06-11.775-32.86-13.014-46.191-14.302-64.105-.725-10.046-.93-18.055-.972-22.67-.031-2.415 1.922-4.358 4.327-4.358h78.693a4.173 4.173 0 0 0 4.175-4.175v-80.78a4.328 4.328 0 0 1 4.327-4.327h35.05s16.421.306 25.412 11.469c8.994 11.162 10.232 17.361 10.232 17.361s71.917 4.337 83.386 9.3c11.479 4.96 16.125 20.459 17.055 35.335.929 14.885 4.651 90.519 2.472 132.996z"/></g></symbol><symbol viewBox="0 0 512 512" id="fb" xmlns="http://www.w3.org/2000/svg"><path d="M288 176v-64c0-17.664 14.336-32 32-32h32V0h-64c-53.024 0-96 42.976-96 96v80h-64v80h64v256h96V256h64l32-80h-96z"/></symbol><symbol viewBox="0 0 455.73 455.73" id="fb-color" xmlns="http://www.w3.org/2000/svg"><path d="M0 0v455.73h242.704V279.691h-59.33v-71.864h59.33v-60.353c0-43.893 35.582-79.475 79.475-79.475h62.025v64.622h-44.382c-13.947 0-25.254 11.307-25.254 25.254v49.953h68.521l-9.47 71.864h-59.051V455.73H455.73V0H0z"/></symbol><symbol viewBox="0 0 455.73 455.73" id="ggp-color" xmlns="http://www.w3.org/2000/svg"><path d="M0 0v455.73h455.73V0H0zm265.67 247.037c-7.793 51.194-45.961 80.543-95.376 80.543-55.531 0-100.552-45.021-100.552-100.552 0-55.517 45.021-100.538 100.552-100.538 26.862 0 50.399 9.586 67.531 26.226l-28.857 28.857c-9.773-9.846-23.147-15.094-38.674-15.094-32.688 0-59.189 27.874-59.189 60.548 0 32.703 26.501 59.768 59.189 59.768 27.397 0 48.144-13.243 54.129-39.758h-54.129v-40.38h95.131c1.142 6.506 1.72 13.315 1.72 20.37-.001 6.998-.507 13.663-1.475 20.01zm120.749-12.52h-35.233v35.218H326.16v-35.218h-35.233v-25.041h35.233v-35.233h25.026v35.233h35.233v25.041z"/></symbol><symbol viewBox="-32 0 512 512.00139" id="gift-box" xmlns="http://www.w3.org/2000/svg"><path d="M437.535 113.512h-60.293c13.04-11.848 21.953-28.125 24.172-46.633 1.238-10.305.195-19.934-3.016-27.844-11.597-28.578-49.078-44.86-85.328-37.074-.293.062-.582.14-.87.226-21.427 6.66-44.446 28.653-68.423 65.364-8.164 12.496-15 24.508-19.992 33.816-4.992-9.308-11.828-21.32-19.988-33.816-23.977-36.711-47-58.703-68.422-65.364-.29-.085-.578-.164-.871-.226C116.125-1.99 96.969.07 80.562 7.75c-5.019 2.352-7.183 8.328-4.832 13.348a10.035 10.035 0 0 0 13.348 4.836c12.14-5.688 26.969-7.297 40.754-4.438 29.07 9.434 61.313 60.89 77.73 92.016h-85.14c-22.242 0-42.543-12.836-51.715-32.707-2.324-5.032-8.285-7.23-13.32-4.907-5.035 2.325-7.23 8.29-4.907 13.325 4.317 9.355 10.45 17.562 17.872 24.289H10.039C4.496 113.512 0 118.008 0 123.55v103.308c0 5.547 4.496 10.04 10.04 10.04h11.116V501.96c0 5.547 4.496 10.039 10.04 10.039h385.179c5.547 0 10.04-4.492 10.04-10.04v-265.06h11.12c5.543 0 10.04-4.492 10.04-10.039V123.551c0-5.543-4.497-10.04-10.04-10.04zM317.738 21.496c26.426-5.484 54.192 5.711 62.055 25.086 1.937 4.773 2.52 10.965 1.687 17.906-3.355 27.95-27.57 49.024-56.328 49.024h-85.144c16.398-31.125 48.625-82.567 77.73-92.016zM20.078 216.82v-83.23h122.254v83.23zm245.324 275.102H41.234V236.898h120.86v184.75c0 5.547 4.492 10.04 10.039 10.04 5.543 0 10.039-4.493 10.039-10.04v-184.75h83.23zm19.762-275.102H162.41v-83.23h122.754zM406.34 491.922H285.48V236.898h120.856v255.024zm21.156-275.102H305.242v-83.23h122.254zm0 0"/><path d="M182.176 461.797c0 5.566-4.512 10.078-10.078 10.078s-10.078-4.512-10.078-10.078 4.511-10.078 10.078-10.078 10.078 4.511 10.078 10.078zM68.617 45.758c0 5.566-4.512 10.078-10.078 10.078s-10.078-4.512-10.078-10.078c0-5.567 4.512-10.078 10.078-10.078s10.078 4.511 10.078 10.078zm0 0"/></symbol><symbol viewBox="0 0 169.063 169.063" id="ig" xmlns="http://www.w3.org/2000/svg"><path d="M122.406 0H46.654C20.929 0 0 20.93 0 46.655v75.752c0 25.726 20.929 46.655 46.654 46.655h75.752c25.727 0 46.656-20.93 46.656-46.655V46.655C169.063 20.93 148.133 0 122.406 0zm31.657 122.407c0 17.455-14.201 31.655-31.656 31.655H46.654C29.2 154.063 15 139.862 15 122.407V46.655C15 29.201 29.2 15 46.654 15h75.752c17.455 0 31.656 14.201 31.656 31.655v75.752z"/><path d="M84.531 40.97c-24.021 0-43.563 19.542-43.563 43.563 0 24.02 19.542 43.561 43.563 43.561s43.563-19.541 43.563-43.561c0-24.021-19.542-43.563-43.563-43.563zm0 72.123c-15.749 0-28.563-12.812-28.563-28.561 0-15.75 12.813-28.563 28.563-28.563s28.563 12.813 28.563 28.563c0 15.749-12.814 28.561-28.563 28.561zm45.39-84.842c-2.89 0-5.729 1.17-7.77 3.22a11.053 11.053 0 0 0-3.23 7.78c0 2.891 1.18 5.73 3.23 7.78 2.04 2.04 4.88 3.22 7.77 3.22 2.9 0 5.73-1.18 7.78-3.22 2.05-2.05 3.22-4.89 3.22-7.78 0-2.9-1.17-5.74-3.22-7.78-2.04-2.05-4.88-3.22-7.78-3.22z"/></symbol><symbol viewBox="0 0 511.998 511.998" id="location" xmlns="http://www.w3.org/2000/svg"><path d="M167.974 350.473c21.086 29.73 42.138 56.32 56.09 73.446 2.031 2.492 3.934 4.804 5.777 7.031h-42.103c-4.713 0-8.533 3.82-8.533 8.533s3.82 8.533 8.533 8.533H324.27c4.713 0 8.533-3.82 8.533-8.533s-3.82-8.533-8.533-8.533h-42.103c1.843-2.227 3.746-4.54 5.786-7.031 13.943-17.067 34.987-43.716 56.081-73.446a749.756 749.756 0 0 0 56.371-90.854c17.425-34.219 26.266-62.626 26.266-84.437a170.55 170.55 0 0 0-49.98-120.841 8.532 8.532 0 1 0-12.075 12.057 153.55 153.55 0 0 1 44.988 108.783c0 19.098-8.209 44.902-24.405 76.689a732.814 732.814 0 0 1-55.091 88.747c-20.804 29.346-41.6 55.637-55.381 72.533a1511.437 1511.437 0 0 1-12.22 14.78 8.642 8.642 0 0 1-13.004 0 1513.93 1513.93 0 0 1-12.22-14.78c-13.781-16.887-34.577-43.179-55.381-72.533a732.814 732.814 0 0 1-55.091-88.747c-16.213-31.787-24.405-57.591-24.405-76.689-.005-61.809 36.959-117.627 93.867-141.747a154.58 154.58 0 0 1 119.552 0 8.535 8.535 0 1 0 6.664-15.718c-86.898-36.652-187.056 4.062-223.735 90.948a170.04 170.04 0 0 0-13.414 66.517c0 21.811 8.841 50.219 26.266 84.48a749.234 749.234 0 0 0 56.368 90.812z"/><path d="M256.003 98.151c4.713 0 8.533-3.82 8.533-8.533s-3.82-8.533-8.533-8.533c-40.71-.001-75.752 28.757-83.695 68.685-7.943 39.928 13.426 79.906 51.037 95.486 37.611 15.58 80.99 2.421 103.608-31.428 22.618-33.849 18.175-78.962-10.611-107.749a8.534 8.534 0 1 0-12.066 12.066c23.03 23.029 26.585 59.118 8.492 86.198-18.093 27.08-52.796 37.608-82.885 25.146-30.089-12.462-47.185-44.444-40.833-76.387s34.385-54.95 66.953-54.951zm252.783 371.806l-52.48-93.867a26.522 26.522 0 0 0-23.219-13.406H372.27c-4.713 0-8.533 3.82-8.533 8.533s3.82 8.533 8.533 8.533h60.817a9.464 9.464 0 0 1 8.337 4.659l52.463 93.867a7.68 7.68 0 0 1-.077 7.885 9.387 9.387 0 0 1-8.26 4.523H26.457a9.387 9.387 0 0 1-8.252-4.523 7.681 7.681 0 0 1-.077-7.885l52.463-93.867a9.454 9.454 0 0 1 8.328-4.659h60.817c4.713 0 8.533-3.82 8.533-8.533s-3.82-8.533-8.533-8.533H78.92a26.537 26.537 0 0 0-23.236 13.406L3.212 469.957a24.748 24.748 0 0 0 .265 24.841 26.284 26.284 0 0 0 22.98 12.954H485.55a26.282 26.282 0 0 0 22.972-12.954 24.746 24.746 0 0 0 .264-24.841z"/><path d="M418.137 405.351h-34.133a8.583 8.583 0 0 0-4.736 1.434l-25.6 17.067a8.535 8.535 0 0 0 9.472 14.2l23.424-15.633h31.573a8.533 8.533 0 0 0 8.533-8.533 8.533 8.533 0 0 0-8.533-8.535zm-51.2 59.733a8.533 8.533 0 0 0 8.533 8.533h68.267c4.713 0 8.533-3.82 8.533-8.533s-3.82-8.533-8.533-8.533H375.47a8.533 8.533 0 0 0-8.533 8.533zm-213.334-25.6a8.533 8.533 0 0 0 4.745-15.633l-25.6-17.067a8.586 8.586 0 0 0-4.745-1.434H93.87a8.533 8.533 0 0 0 0 17.066h31.573l23.45 15.633a8.516 8.516 0 0 0 4.71 1.435zM68.27 456.551c-4.713 0-8.533 3.82-8.533 8.533s3.82 8.533 8.533 8.533h68.267c4.713 0 8.533-3.82 8.533-8.533s-3.82-8.533-8.533-8.533H68.27z"/></symbol><symbol viewBox="0 0 459 459" id="menu" xmlns="http://www.w3.org/2000/svg"><path d="M0 382.5h459v-51H0v51zM0 255h459v-51H0v51zM0 76.5v51h459v-51H0z"/></symbol><symbol viewBox="0 0 94 94" id="ok-color" xmlns="http://www.w3.org/2000/svg"><path d="M47.051 37.59c5.247-.017 9.426-4.23 9.407-9.489-.021-5.259-4.207-9.448-9.456-9.452-5.293-.005-9.52 4.259-9.479 9.566.039 5.239 4.265 9.397 9.528 9.375z"/><path d="M89 0H5a5 5 0 0 0-5 5v84a5 5 0 0 0 5 5h84a5 5 0 0 0 5-5V5a5 5 0 0 0-5-5zM47.08 8.766c10.699.027 19.289 8.781 19.236 19.602-.057 10.57-8.787 19.138-19.469 19.102-10.576-.036-19.248-8.803-19.188-19.396.063-10.709 8.741-19.34 19.421-19.308zm21.673 46.306c-2.366 2.431-5.214 4.187-8.378 5.416-2.991 1.156-6.268 1.742-9.512 2.13.49.534.721.793 1.025 1.102 4.404 4.425 8.826 8.832 13.215 13.27 1.494 1.511 1.81 3.386.985 5.145-.901 1.925-2.916 3.188-4.894 3.052-1.252-.088-2.228-.711-3.094-1.582-3.324-3.345-6.711-6.627-9.965-10.031-.947-.992-1.403-.807-2.241.056a664.352 664.352 0 0 1-10.155 10.2c-1.535 1.514-3.36 1.785-5.143.922-1.892-.917-3.094-2.848-3.001-4.791.064-1.312.71-2.314 1.611-3.214 4.356-4.351 8.702-8.713 13.05-13.072.289-.288.557-.597.976-1.045-5.929-.619-11.275-2.077-15.85-5.657-.567-.445-1.154-.875-1.674-1.373-2.002-1.924-2.203-4.125-.618-6.396 1.354-1.942 3.632-2.464 5.997-1.349.459.215.895.486 1.313.775 8.528 5.86 20.245 6.023 28.806.266.847-.647 1.754-1.183 2.806-1.449 2.045-.525 3.947.224 5.045 2.012 1.257 2.037 1.24 4.029-.304 5.613z"/></symbol><symbol viewBox="0 0 512 512" id="order" xmlns="http://www.w3.org/2000/svg"><path d="M403.505 14.385C398.373 5.512 388.819 0 378.576 0h-107.06v126.637h196.913L403.505 14.385zM241.505 0h-108.07c-10.264 0-19.817 5.522-24.949 14.415L43.801 126.637h197.703V0zM33.057 156.648v320.069C33.057 496.174 48.893 512 68.35 512h375.3c19.457 0 35.293-15.826 35.293-35.283V156.648H33.057zm291.058 134.6l-77.609 77.609c-2.931 2.931-6.773 4.402-10.614 4.402s-7.683-1.471-10.604-4.402l-36.383-36.374c-5.852-5.852-5.852-15.356 0-21.218 5.862-5.862 15.366-5.862 21.228 0l25.76 25.77 67.005-67.005c5.862-5.862 15.366-5.862 21.218 0 5.862 5.862 5.862 15.356-.001 21.218z"/></symbol><symbol viewBox="0 0 511.997 511.997" id="present" xmlns="http://www.w3.org/2000/svg"><path d="M371.472 48.579a7.501 7.501 0 0 0-9.464-4.79l-2.663.873v-2.913a7.5 7.5 0 0 0-7.5-7.5 7.5 7.5 0 0 0-7.5 7.5v2.914l-2.663-.873a7.504 7.504 0 0 0-9.464 4.79 7.503 7.503 0 0 0 4.791 9.464l2.764.907-1.739 2.417c-3.585 4.981.027 11.883 6.08 11.883 4.371 0 6.071-3.089 7.732-5.396l1.639 2.276a7.5 7.5 0 0 0 12.174-8.764l-1.74-2.417 2.764-.907a7.5 7.5 0 0 0 4.789-9.464zm74.163 80.505a7.501 7.501 0 0 0-9.464-4.79l-2.663.873v-2.913a7.5 7.5 0 0 0-7.5-7.5 7.5 7.5 0 0 0-7.5 7.5v2.913l-2.663-.873c-3.935-1.285-8.172.854-9.464 4.79a7.503 7.503 0 0 0 4.791 9.463l2.764.907-1.74 2.417a7.501 7.501 0 0 0 12.175 8.764l1.638-2.276c1.576 2.189 3.3 5.396 7.732 5.396 6.04 0 9.671-6.894 6.081-11.883l-1.74-2.417 2.764-.907a7.5 7.5 0 0 0 4.789-9.464z"/><circle cx="345.497" cy="111.749" r="7.5"/><circle cx="465.497" cy="233.159" r="7.5"/><circle cx="387.497" cy="175.749" r="7.5"/><circle cx="468.507" cy="77.749" r="7.5"/><path d="M329.94 129.488c-3.905-4.834-9.439-5.319-9.439-5.319-4.3-.594-7.935 2.453-8.5 6.35-.603 4.119 2.258 7.902 6.34 8.5l-13.38 13.04a7.5 7.5 0 0 0-2.16 6.64l3.16 18.421h-.01c-22.035-11.593-18.16-11.517-40.03-.011h-.01c-.011.011-.011.011-.021.011l3.16-18.421a7.522 7.522 0 0 0-2.15-6.64l-13.389-13.04 18.5-2.689a7.507 7.507 0 0 0 5.64-4.101l8.28-16.76 3.26 6.61a7.46 7.46 0 0 0 6.73 4.189c5.552 0 9.171-5.84 6.729-10.83l-3.269-6.609c-5.508-11.28-21.541-10.996-26.91 0l-6.519 13.22c-14.879 2.161-19.531 1.858-24.04 7.439-2.22 2.73-3.4 6.04-3.4 9.57-.058 7.779 4.487 10.649 15.09 20.991l-2.49 14.54c-.15.84-.22 1.71-.22 2.58a14.87 14.87 0 0 0 4.54 10.7c2.903 2.811 6.655 4.27 10.48 4.27 4.682 0 6.331-1.404 20.009-8.6h.01l13.05 6.859c9.923 5.263 22.007-2.041 21.98-13.229 0-.87-.07-1.74-.22-2.58l-2.49-14.54 10.559-10.29c5.632-5.439 6.051-14.219 1.13-20.271zm174.557 133.261h-99.822l3.558-3.469c10.024-9.769 4.484-26.804-9.362-28.814l-19.262-2.8-8.614-17.454c-6.194-12.553-24.105-12.547-30.296 0l-8.615 17.454-19.261 2.8c-13.851 2.011-19.382 19.048-9.363 28.814l3.559 3.469h-26.834c.439-4.332-.993-8.82-4.304-12.133l-42.426-42.426c-5.849-5.848-15.364-5.848-21.212 0l-26.104 26.105-28.75-28.75c-7.029-7.03-16.958-9.69-26.562-7.118-9.603 2.573-16.872 9.843-19.445 19.445l-15.035 56.111c-8.977 3.812-16.02 10.852-19.833 19.834l-56.11 15.034C-.043 314.328-6.905 339.876 8.076 354.86l28.75 28.75-26.104 26.104c-5.863 5.862-5.863 15.351 0 21.214l42.426 42.427c2.924 2.924 6.765 4.386 10.606 4.386s7.682-1.462 10.606-4.386l195.6-195.606h227.037v177.5c-.01 4.12-3.37 7.489-7.5 7.5H236.502c-4.13-.011-7.49-3.38-7.5-7.5v-95.65c0-4.13-3.36-7.5-7.5-7.5-4.13 0-7.49 3.36-7.5 7.48v95.67c0 6.01 2.34 11.66 6.59 15.91 4.25 4.239 9.9 6.59 15.91 6.59h252.995c12.379 0 22.5-10.013 22.5-22.5v-185c0-4.174-3.413-7.5-7.5-7.5zm-378.629-40.993c2.49-9.293 14.102-12.415 20.912-5.604l28.75 28.75-34.668 34.669 9.049-33.772a7.5 7.5 0 1 0-14.488-3.883l-8.711 32.511a37.233 37.233 0 0 0-14.042-3.41l13.198-49.261zm-21.191 65.145c8.131-2.372 16.842-.069 22.697 6.159a476343.4 476343.4 0 0 0-31.788 31.788c-12.708-11.974-7.457-33.12 9.091-37.947zM18.68 344.255c-3.195-3.196-4.405-7.71-3.235-12.075 1.169-4.365 4.474-7.669 8.838-8.839l49.262-13.199a37.26 37.26 0 0 0 3.409 14.043l-32.51 8.711a7.498 7.498 0 0 0-5.303 9.186 7.5 7.5 0 0 0 9.185 5.304l33.772-9.049-34.669 34.669-28.749-28.751zm45.071 118.494l-42.425-42.426 31.407-31.407v-.001l.001-.001 138.704-138.707.002-.002 31.406-31.407 42.432 42.418L63.751 462.749zm334.012-214.21l-14.578 14.211h-54.678c-15.674-15.28-15.558-14.611-15.057-16.151.507-1.56-.236-1.033 24.692-4.655a7.496 7.496 0 0 0 5.647-4.103c11.184-22.66 10.437-22.046 12.057-22.046 1.621 0 .873-.614 12.056 22.046a7.5 7.5 0 0 0 5.647 4.103l23.165 3.366a1.886 1.886 0 0 1 1.049 3.229z"/></symbol><symbol viewBox="-48 0 512 512" id="prize" xmlns="http://www.w3.org/2000/svg"><path d="M360.434 80.336h-63.399a54.808 54.808 0 0 0 6.102-25.168C303.133 24.746 278.387 0 247.969 0c-15.82 0-30.098 6.703-40.168 17.41C197.73 6.703 183.453 0 167.633 0c-30.418 0-55.164 24.746-55.164 55.168 0 9.062 2.21 17.613 6.101 25.168H55.168C24.75 80.336 0 105.082 0 135.5v40.164c0 8.285 6.719 15 15 15h177.8v-80.328h30v80.328h177.802c8.285 0 15-6.715 15-15V135.5c0-30.418-24.75-55.164-55.168-55.164zm-167.633 0h-25.168c-13.875 0-25.164-11.29-25.164-25.168 0-13.879 11.289-25.168 25.164-25.168 13.879 0 25.168 11.29 25.168 25.168zm55.168 0H222.8V55.168C222.8 41.289 234.09 30 247.969 30c13.875 0 25.164 11.29 25.164 25.168 0 13.879-11.29 25.168-25.164 25.168zM16.066 456.832c0 30.422 24.75 55.168 55.168 55.168h273.133c30.418 0 55.168-24.746 55.168-55.168V220.664H16.066zm93-144.102a15.002 15.002 0 0 1 12.11-10.207l50.562-7.347 22.614-45.817a15.004 15.004 0 0 1 26.902 0l22.61 45.82 50.562 7.344a15.001 15.001 0 0 1 8.313 25.586l-36.59 35.66 8.5 49.547c.246 1.079.374 2.2.374 3.352 0 8.277-6.703 14.988-14.98 15h-.04c-2.39 0-4.784-.57-6.98-1.723l-45.222-23.777-45.227 23.777a15.004 15.004 0 0 1-15.797-1.144 14.995 14.995 0 0 1-5.964-14.672l8.636-50.36-36.59-35.66a15.015 15.015 0 0 1-3.793-15.379zm0 0"/></symbol><symbol viewBox="0 0 490 490" id="product" xmlns="http://www.w3.org/2000/svg"><path d="M155 345H85c-5.523 0-10 4.477-10 10v60c0 5.523 4.477 10 10 10h70c5.523 0 10-4.477 10-10v-60c0-5.523-4.477-10-10-10zm-10 60H95v-40h50v40zm35-45h45v20h-45zm0 30h115v20H180zm195 10h40v20h-40zm0-30h40v20h-40z"/><path d="M489.383 256.543l-35-95A10 10 0 0 0 445 155h-60V35c0-5.523-4.477-10-10-10H115c-5.523 0-10 4.477-10 10v120H45a10 10 0 0 0-9.32 6.376l-35 90A9.997 9.997 0 0 0 10 265h25v190c0 5.523 4.477 10 10 10h400c5.523 0 10-4.477 10-10V270h25a9.999 9.999 0 0 0 9.383-13.457zM125 45h160v30H125V45zm0 50h160v60H125V95zM24.619 245l27.222-70h278.54l-27.222 70H24.619zM335 445H55V265h255a10 10 0 0 0 9.32-6.375l15.68-40.32V445zm-30-290V45h60v110h-60zm130 290h-80V209.471l25.962 54.81A10 10 0 0 0 390 270h45v175zm-38.672-195l-35.526-75h77.225l27.631 75h-69.33z"/><path d="M320 65h30v20h-30zm0 30h30v20h-30z"/></symbol><symbol viewBox="-76 0 512 512.00085" id="ribbon" xmlns="http://www.w3.org/2000/svg"><path d="M110.29 120c5.519 0 10-4.48 10-10s-4.481-10-10-10c-5.52 0-10 4.48-10 10s4.48 10 10 10zm0 0"/><path d="M360.582 180.29c0-18.43-9.656-35.25-24.883-44.7a52.503 52.503 0 0 0 3.602-19.16c0-25.801-18.559-47.383-43.387-51.766C291.554 40.047 270 21.29 244.152 21.29a52.469 52.469 0 0 0-19.16 3.598C215.543 9.657 198.722 0 180.29 0c-18.43 0-35.254 9.656-44.7 24.887a52.484 52.484 0 0 0-19.16-3.598c-14.066 0-27.28 5.484-37.202 15.441-7.692 7.72-12.688 17.403-14.508 27.918-10.555 1.84-20.274 6.86-28.012 14.582-9.95 9.934-15.426 23.145-15.426 37.2a52.422 52.422 0 0 0 3.602 19.16C9.656 145.035 0 161.86 0 180.29c0 18.437 9.656 35.26 24.883 44.706a52.411 52.411 0 0 0-3.602 19.152c0 25.852 18.746 47.407 43.36 51.774 2.683 15.336 12.035 28.672 25.648 36.437V502a9.998 9.998 0 0 0 17.07 7.07l72.93-72.925 72.93 72.925a9.997 9.997 0 0 0 17.07-7.07V332.348c13.594-7.762 22.879-21.082 25.48-36.387 10.563-1.824 20.293-6.828 28.047-14.547 9.985-9.941 15.485-23.176 15.485-37.266a52.46 52.46 0 0 0-3.602-19.152c15.227-9.445 24.883-26.27 24.883-44.707zM110.289 338.933c2.027.234 4.074.367 6.14.367 4.731 0 9.38-.637 13.86-1.86v120.42l-20 20zm62.93 75.996l-22.93 22.925v-86.71a52.323 52.323 0 0 0 30 9.445c10.957 0 21.371-3.442 30-9.434v86.703l-22.926-22.93c-3.906-3.906-10.238-3.906-14.144 0zm57.07 42.925V337.441a52.657 52.657 0 0 0 13.863 1.86c2.063 0 4.11-.133 6.137-.371v138.93zm88.508-246.808a9.992 9.992 0 0 0-6.176 6.277 10.002 10.002 0 0 0 1.184 8.727 32.355 32.355 0 0 1 5.496 18.101c0 8.73-3.406 16.93-9.594 23.086-6.156 6.125-14.316 9.492-22.996 9.492h-.2a10 10 0 0 0-10 10.09c.118 13.223-7.738 25.02-20.015 30.059h-.004a32.36 32.36 0 0 1-12.34 2.422 32.454 32.454 0 0 1-18.12-5.492 9.984 9.984 0 0 0-4.712-1.633c-.007-.004-.015-.004-.023-.004a8.805 8.805 0 0 0-.785-.04c-.074-.003-.145-.01-.219-.01-4.867 0-8.918 3.476-9.813 8.081-4.937 12.235-16.917 20.387-30.187 20.387-13.746 0-25.926-8.61-30.426-21.445a9.85 9.85 0 0 0-1.691-3.258c-.004-.004-.008-.012-.016-.02a9.316 9.316 0 0 0-.629-.726c-.031-.032-.058-.067-.086-.098a8.95 8.95 0 0 0-.601-.555c-.063-.054-.121-.117-.188-.172-.062-.05-.133-.097-.199-.148a9.929 9.929 0 0 0-3.559-1.805 10.012 10.012 0 0 0-8.23 1.364c-5.387 3.648-11.695 5.574-18.238 5.574-4.282 0-8.438-.813-12.348-2.414-12.305-5.043-20.246-16.875-20.23-30.145a10.004 10.004 0 0 0-10-10.012c-17.961 0-32.57-14.613-32.57-32.578 0-6.48 1.902-12.742 5.495-18.101a10.002 10.002 0 0 0 1.184-8.727 9.992 9.992 0 0 0-6.176-6.277c-13.027-4.574-21.781-16.934-21.781-30.758 0-13.816 8.75-26.172 21.781-30.742a10.001 10.001 0 0 0 4.992-15.008 32.401 32.401 0 0 1-5.496-18.11c0-8.706 3.395-16.89 9.559-23.042 6.156-6.145 14.332-9.528 23.027-9.528h.074a9.998 9.998 0 0 0 10-10.035c-.027-8.672 3.329-16.832 9.45-22.976 6.144-6.164 14.328-9.559 23.039-9.559 6.5 0 12.761 1.895 18.113 5.484a9.999 9.999 0 0 0 15.004-4.992C154.12 28.754 166.473 20 180.289 20c13.816 0 26.172 8.754 30.746 21.781a10.001 10.001 0 0 0 15.004 4.992c5.352-3.585 11.613-5.484 18.113-5.484 17.957 0 32.567 14.613 32.567 32.57 0 5.524 4.48 10 10 10 18.094 0 32.582 14.618 32.582 32.57a32.41 32.41 0 0 1-5.496 18.11 10.009 10.009 0 0 0-1.184 8.73 10.01 10.01 0 0 0 6.176 6.278c13.031 4.57 21.781 16.926 21.781 30.742.004 13.824-8.75 26.184-21.781 30.758zm0 0"/><path d="M180.29 70c-14.11 0-27.872 2.645-40.903 7.855-5.13 2.051-7.621 7.872-5.57 12.997 2.05 5.128 7.87 7.62 12.995 5.574C157.472 92.16 168.734 90 180.29 90c49.629 0 90 40.375 90 90s-40.371 90-90 90c-49.625 0-90-40.375-90-90 0-11.555 2.164-22.816 6.426-33.477 2.05-5.128-.442-10.949-5.57-13-5.13-2.046-10.946.442-13 5.57-5.211 13.036-7.856 26.798-7.856 40.907 0 60.652 49.348 110 110 110 60.656 0 110-49.348 110-110s-49.344-110-110-110zm0 0"/><path d="M230.29 180c0 5.523 4.48 10 10 10 5.523 0 10-4.477 10-10 0-38.598-31.403-70-70-70-5.52 0-10 4.477-10 10s4.48 10 10 10c27.57 0 50 22.43 50 50zm0 0"/></symbol><symbol viewBox="0 0 56.966 56.966" id="search" xmlns="http://www.w3.org/2000/svg"><path d="M55.146 51.887L41.588 37.786A22.926 22.926 0 0 0 46.984 23c0-12.682-10.318-23-23-23s-23 10.318-23 23 10.318 23 23 23c4.761 0 9.298-1.436 13.177-4.162l13.661 14.208c.571.593 1.339.92 2.162.92.779 0 1.518-.297 2.079-.837a3.004 3.004 0 0 0 .083-4.242zM23.984 6c9.374 0 17 7.626 17 17s-7.626 17-17 17-17-7.626-17-17 7.626-17 17-17z"/></symbol><symbol viewBox="0 0 512.002 512.002" id="support" xmlns="http://www.w3.org/2000/svg"><path d="M128.497 336.827c-4.499-3.802-11.228-3.237-15.033 1.262a190.575 190.575 0 0 0-4.317 5.299c-3.638 4.634-2.831 11.339 1.803 14.976a10.611 10.611 0 0 0 6.579 2.277c3.163 0 6.292-1.401 8.397-4.08a167.643 167.643 0 0 1 3.831-4.701c3.803-4.5 3.239-11.23-1.26-15.033zm196.802-209.039a10.621 10.621 0 0 0 7.016 2.636c2.971 0 5.928-1.234 8.035-3.647a67.832 67.832 0 0 0 3.99-5.001c3.442-4.78 2.359-11.446-2.421-14.89-4.782-3.443-11.448-2.358-14.89 2.421a47.24 47.24 0 0 1-2.742 3.429c-3.877 4.438-3.423 11.176 1.012 15.052z"/><path d="M501.334 447.995H485.08c-1.812-39.245-13.6-77.268-34.378-110.568a230.163 230.163 0 0 0-81.219-78.058c1.372-3.602 2.658-7.61 3.891-12.111h21.99c20.007 0 36.283-16.277 36.283-36.284v-33.613c0-20.006-16.276-36.283-36.283-36.283h-3.785c.926-14.488.416-28.445-2.935-39.659-9.25-30.97-26.802-56.812-50.762-74.733C314.543 9.229 286.228.001 256.001 0c-30.226 0-58.541 9.228-81.883 26.688-23.957 17.921-41.512 43.761-50.764 74.732-3.35 11.214-3.859 25.171-2.933 39.66h-3.782c-20.007 0-36.283 16.276-36.283 36.283v33.613c0 20.007 16.276 36.284 36.283 36.284h21.988c1.233 4.502 2.52 8.509 3.89 12.111a230.153 230.153 0 0 0-81.218 78.059c-20.778 33.302-32.564 71.322-34.378 110.567H10.669c-5.891 0-10.667 4.777-10.667 10.667s4.776 10.667 10.667 10.667h96.596l10.52 35.067a10.667 10.667 0 0 0 10.217 7.601h209.926c.017 0 .032.003.048.003l.075-.003H384c4.71 0 8.864-3.09 10.217-7.601l10.52-35.067h96.597c5.891 0 10.667-4.777 10.667-10.667 0-5.892-4.775-10.669-10.667-10.669zM380.768 211.324c.56-3.404 1.405-7.806 2.382-12.904 2.017-10.512 4.419-23.041 6.211-36.007h6.004v-.001c8.243 0 14.949 6.706 14.949 14.949v33.613c0 8.244-6.706 14.951-14.949 14.951H378.19c.86-4.506 1.714-9.354 2.578-14.601zm-264.129 14.6v.001c-8.243 0-14.949-6.706-14.949-14.951v-33.613c0-8.243 6.706-14.949 14.949-14.949h6.002c1.792 12.959 4.193 25.485 6.208 35.992.978 5.103 1.824 9.51 2.384 12.918a589.858 589.858 0 0 0 2.578 14.602h-17.172zm25.08-86.162c-.807-12.25-.47-23.712 2.077-32.236C159.679 54.361 202.672 21.333 256 21.333c53.332.002 96.326 33.03 112.203 86.194 3.194 10.688 2.919 25.987 1.264 41.675a10.622 10.622 0 0 0-.318 2.544c0 .077.011.153.012.228-1.764 15.31-4.723 30.751-6.962 42.426-1.006 5.245-1.875 9.775-2.481 13.457-1.487 9.032-2.882 16.655-4.285 23.172-15.733 14.299-42.51 24.087-69.696 26.406-.771-5.134-5.187-9.074-10.536-9.074H256c-5.89 0-10.667 4.777-10.667 10.667v8.533c0 .115.014.227.018.34.006.213.013.427.031.638.014.148.036.292.057.439.027.203.054.405.092.604.031.159.07.316.109.473.044.178.085.356.138.532.05.171.109.336.169.503.054.156.108.314.171.467.068.173.148.34.227.51.067.142.131.285.203.422.086.165.182.327.277.487.08.134.158.27.243.401.1.151.206.298.313.444.096.132.192.264.293.393.107.133.219.26.332.387.115.131.231.262.353.388.11.114.226.222.341.331.135.128.271.255.413.375.115.098.237.19.355.284.153.117.303.235.461.344.125.086.254.166.383.247.16.102.321.204.487.295.141.079.286.151.431.223.16.081.321.162.487.236.164.071.334.135.505.201.153.058.304.117.462.169.191.063.385.113.58.165.146.038.289.079.437.112.204.045.413.077.621.111.115.018.225.046.34.061.067.008.135.014.203.021l.079.01a150.12 150.12 0 0 0 18.514 1.126c24.068 0 48.73-5.447 69.066-14.911-5.082 6.342-11.688 10.548-21.194 16.594-3.97 2.525-8.46 5.38-13.457 8.762-17.228 9.885-34.68 14.895-51.877 14.895-17.194 0-34.643-5.009-51.866-14.889-4.997-3.381-9.486-6.237-13.456-8.763-18.938-12.047-26.379-16.781-33.147-45.683a10.592 10.592 0 0 0-.492-2.153c-1.561-6.966-3.1-15.265-4.751-25.295-.606-3.685-1.476-8.221-2.483-13.472-1.796-9.372-4.059-21.174-5.794-33.385 19.584-2.734 61.573-9.824 89.863-23.396l7.005 16.807c.716 1.719 1.309 3.231 1.826 4.549 2.357 6 4.583 11.667 11.252 13.915a14.44 14.44 0 0 0 4.705.777c3.73 0 7.665-1.344 13.119-3.206 1.499-.513 3.189-1.09 5.097-1.719 7.397-2.439 22.243-9.801 36.305-19.149 4.906-3.262 6.238-9.883 2.976-14.788-3.263-4.907-9.884-6.237-14.788-2.976-13.119 8.722-26.127 14.99-31.179 16.655-1.989.657-3.747 1.258-5.307 1.79-.778.266-1.586.542-2.364.803-.555-1.411-1.188-3.023-1.951-4.853l-11.586-27.8a10.667 10.667 0 0 0-15.673-4.831c-23.073 15.048-70.397 23.174-91.588 26.184zm244.903 315.714a.226.226 0 0 1-.011.037l-10.546 35.15h-24.196l4.441-16.576c1.525-5.691-1.852-11.539-7.542-13.064-5.694-1.526-11.54 1.853-13.064 7.542l-5.92 22.097H135.939l-10.524-35.078c-.016-.053-.03-.106-.047-.158l-15.031-50.097h23.512l5.92 22.096c1.277 4.766 5.586 7.909 10.297 7.909.913 0 1.843-.118 2.767-.367 5.691-1.524 9.068-7.373 7.542-13.064l-4.441-16.575h245.732l-15.044 50.148zm24.518-7.481l15.081-50.266a10.669 10.669 0 0 0-10.217-13.733H96.002a10.667 10.667 0 0 0-10.217 13.733l15.081 50.266H48.271c3.579-71.001 42.769-134.694 104.613-169.987 4.619 5.669 10.165 10.182 17.119 14.945a187.7 187.7 0 0 0-29.485 19.017c-4.628 3.646-5.425 10.352-1.78 14.98a10.65 10.65 0 0 0 8.387 4.067c2.309 0 4.637-.747 6.593-2.287a166.368 166.368 0 0 1 26.987-17.306l9.878-5.067c.633.423 1.252.832 1.899 1.27l.654.411c20.615 11.9 41.762 17.935 62.859 17.935h.002c21.097 0 42.249-6.036 62.867-17.94l.653-.41c4.869-3.302 9.327-6.138 13.261-8.639 11.505-7.316 19.841-13.002 26.337-20.977 61.846 35.294 101.037 98.987 104.616 169.987H411.14z"/><path d="M156.003 446.808c-5.691 1.526-9.066 7.376-7.54 13.066l1.246 4.645c1.278 4.765 5.587 7.907 10.297 7.907.914 0 1.844-.118 2.769-.367 5.691-1.526 9.066-7.376 7.54-13.066l-1.246-4.645c-1.526-5.688-7.369-9.064-13.066-7.54zm195.932 2.373c.925.249 1.855.368 2.77.368 4.708 0 9.018-3.141 10.296-7.906l1.246-4.644c1.528-5.689-1.847-11.539-7.538-13.066-5.688-1.53-11.538 1.849-13.066 7.538l-1.246 4.644c-1.528 5.69 1.847 11.54 7.538 13.066z"/></symbol><symbol viewBox="0 0 300 300" id="tg" xmlns="http://www.w3.org/2000/svg"><path d="M5.299 144.645l69.126 25.8 26.756 86.047c1.712 5.511 8.451 7.548 12.924 3.891l38.532-31.412a11.496 11.496 0 0 1 14.013-.391l69.498 50.457c4.785 3.478 11.564.856 12.764-4.926L299.823 29.22c1.31-6.316-4.896-11.585-10.91-9.259L5.218 129.402c-7.001 2.7-6.94 12.612.081 15.243zm91.57 12.066l135.098-83.207c2.428-1.491 4.926 1.792 2.841 3.726L123.313 180.87a23.112 23.112 0 0 0-7.163 13.829l-3.798 28.146c-.503 3.758-5.782 4.131-6.819.494l-14.607-51.325c-1.673-5.854.765-12.107 5.943-15.303z"/></symbol><symbol viewBox="0 0 455.731 455.731" id="tg-color" xmlns="http://www.w3.org/2000/svg"><path d="M316.244 149.903L149.082 253.579a7.605 7.605 0 0 0-3.255 8.717l22.423 72.253c.471 1.518 2.683 1.309 2.861-.271l5.45-48.448a7.603 7.603 0 0 1 2.519-4.847l141.556-125.177c3.389-2.996-.547-8.288-4.392-5.903z"/><path d="M0 0v455.731h455.731V0H0zm379.882 118.418l-52.031 248.76c-2.442 11.673-16.133 16.916-25.747 9.859l-78.559-57.665-40.039 40.881c-7.027 7.175-19.166 4.271-22.185-5.308l-28.901-91.706-77.441-22.868c-10.16-3-10.759-17.165-.888-21.012L358.844 100.6c11.6-4.52 23.587 5.632 21.038 17.818z"/></symbol><symbol viewBox="0 0 510 510" id="tick-inside" xmlns="http://www.w3.org/2000/svg"><path d="M150.45 206.55l-35.7 35.7L229.5 357l255-255-35.7-35.7-219.3 219.3-79.05-79.05zM459 255c0 112.2-91.8 204-204 204S51 367.2 51 255 142.8 51 255 51c20.4 0 38.25 2.55 56.1 7.65l40.801-40.8C321.3 7.65 288.15 0 255 0 114.75 0 0 114.75 0 255s114.75 255 255 255 255-114.75 255-255h-51z"/></symbol><symbol viewBox="0 0 455 455" id="tw-color" xmlns="http://www.w3.org/2000/svg"><path d="M0 0v455h455V0H0zm352.751 163.259c.123 2.773.186 5.561.186 8.36 0 85.403-65.002 183.876-183.873 183.876-36.496 0-70.466-10.697-99.065-29.037 5.056.601 10.199.907 15.417.907 30.278 0 58.143-10.331 80.262-27.668-28.28-.519-52.148-19.204-60.373-44.88a64.403 64.403 0 0 0 12.161 1.163c5.894 0 11.604-.794 17.027-2.268-29.563-5.939-51.841-32.057-51.841-63.368 0-.273 0-.544.006-.814a64.366 64.366 0 0 0 29.271 8.084c-17.342-11.589-28.748-31.371-28.748-53.79 0-11.845 3.187-22.945 8.751-32.492 31.873 39.101 79.493 64.828 133.203 67.526a64.831 64.831 0 0 1-1.677-14.729c0-35.688 28.938-64.623 64.626-64.623 18.589 0 35.385 7.847 47.173 20.406a129.352 129.352 0 0 0 41.038-15.681c-4.824 15.092-15.071 27.754-28.415 35.754 13.074-1.563 25.528-5.038 37.118-10.178-8.662 12.959-19.618 24.342-32.247 33.452z" fill-rule="evenodd" clip-rule="evenodd"/></symbol><symbol viewBox="0 0 409.165 409.164" id="user" xmlns="http://www.w3.org/2000/svg"><path d="M204.583 216.671c50.664 0 91.74-48.075 91.74-107.378 0-82.237-41.074-107.377-91.74-107.377-50.668 0-91.74 25.14-91.74 107.377.001 59.303 41.073 107.378 91.74 107.378zm202.581 158.046L360.88 270.454a23.23 23.23 0 0 0-10.465-11.138l-71.83-37.392a4.628 4.628 0 0 0-4.926.415c-20.316 15.366-44.203 23.488-69.076 23.488-24.877 0-48.762-8.122-69.078-23.488a4.635 4.635 0 0 0-4.93-.415L58.75 259.316a23.222 23.222 0 0 0-10.465 11.138L2.001 374.717a23.059 23.059 0 0 0 1.75 22.005 23.056 23.056 0 0 0 19.4 10.526h362.861a23.063 23.063 0 0 0 19.402-10.527 23.063 23.063 0 0 0 1.75-22.004z"/></symbol><symbol viewBox="0 0 455.731 455.731" id="vb-color" xmlns="http://www.w3.org/2000/svg"><path d="M296.076 105.381c-45.26-8.61-91.16-8.61-136.43 0-19.8 4.41-44.71 28.28-49.58 47.48-8.1 37.15-8.1 74.81 0 111.96 4.87 19.2 29.78 43.07 49.58 47.48l.015.003a1.876 1.876 0 0 1 1.525 1.836v54.422c0 2.72 3.32 4.06 5.21 2.09l25.85-26.53 24.303-24.948a1.853 1.853 0 0 1 1.38-.559c26.099.723 52.226-1.385 78.147-6.313 19.8-4.41 44.72-28.28 49.58-47.48 8.11-37.15 8.11-74.81 0-111.96-4.861-19.201-29.77-43.071-49.58-47.481zm.69 162.211c-3.96 8.408-9.722 15.403-18.034 19.868-2.345 1.26-5.148 1.667-7.795 2.482-3.044-.924-5.945-1.545-8.639-2.663-27.916-11.582-53.608-26.524-73.959-49.429-11.573-13.025-20.632-27.73-28.288-43.292-3.631-7.38-6.691-15.049-9.81-22.668-2.845-6.948 1.345-14.126 5.756-19.361 4.139-4.913 9.465-8.673 15.233-11.444 4.502-2.163 8.943-.916 12.231 2.9 7.108 8.25 13.637 16.922 18.924 26.485 3.251 5.882 2.359 13.072-3.533 17.075-1.432.973-2.737 2.115-4.071 3.214-1.17.963-2.271 1.936-3.073 3.24-1.466 2.385-1.536 5.2-.592 7.794 7.266 19.968 19.513 35.495 39.611 43.858 3.217 1.338 6.446 2.896 10.151 2.464 6.205-.725 8.214-7.531 12.562-11.087 4.25-3.475 9.681-3.521 14.259-.624 4.579 2.898 9.018 6.009 13.43 9.153 4.331 3.086 8.643 6.105 12.638 9.623 3.839 3.382 5.162 7.82 2.999 12.412zm-36.044-65.069c-1.733.031-1.052-.003-.393-.022-2.793-.098-4.312-1.742-4.612-4.415-.219-1.953-.392-3.932-.858-5.832-.918-3.742-2.907-7.21-6.054-9.503-1.486-1.083-3.17-1.873-4.934-2.381-2.241-.647-4.568-.469-6.804-1.017-2.428-.594-3.771-2.561-3.39-4.839.347-2.073 2.364-3.691 4.629-3.527 14.157 1.022 24.275 8.341 25.719 25.008.102 1.176.222 2.418-.039 3.543-.424 1.829-1.731 2.781-3.052 2.954.108.002.087.011-.212.031zm-8.803-38.119c-4.344-2.127-9.042-3.449-13.804-4.237-2.081-.344-4.184-.553-6.275-.844-2.534-.352-3.886-1.967-3.767-4.464.112-2.34 1.822-4.023 4.372-3.879 8.38.476 16.474 2.287 23.924 6.232 15.15 8.023 23.804 20.687 26.33 37.597.115.766.298 1.525.356 2.294.144 1.898.233 3.799.379 6.302-.06.456-.092 1.528-.358 2.538-.969 3.666-6.527 4.125-7.807.425-.379-1.098-.436-2.347-.438-3.529-.013-7.734-1.694-15.46-5.594-22.189-4.009-6.914-10.135-12.728-17.318-16.246zm46.812 52.261c-2.927.035-4.244-2.414-4.434-5.039-.376-5.196-.636-10.415-1.353-15.568-3.78-27.201-25.47-49.705-52.544-54.534-4.074-.727-8.245-.918-12.371-1.351-2.609-.274-6.026-.432-6.604-3.675-.485-2.719 1.81-4.884 4.399-5.023.704-.038 1.412-.006 2.119-.003 35.065.983 2.14.076.094.005 36.472 1.063 66.417 25.283 72.839 61.351 1.095 6.151 1.485 12.44 1.972 18.683.204 2.625-1.283 5.12-4.117 5.154z"/><path d="M0 0v455.731h455.731V0H0zm371.996 270.781l-.09.36c-7.28 29.43-40.1 61.01-70.24 67.58l-.34.07c-24.37 4.65-48.92 6.97-73.46 6.97-7.223 0-14.446-.225-21.665-.629l-33.285 34.599c-8.24 8.58-22.73 2.74-22.73-9.15v-32.852c-29.015-8.286-59.391-38.414-66.37-66.589l-.08-.36c-9-41.1-9-82.78 0-123.88l.08-.36c7.29-29.43 40.11-61.01 70.24-67.58l.35-.07c48.74-9.3 98.17-9.3 146.92 0l.34.07c30.14 6.57 62.96 38.15 70.24 67.58l.09.36c9 41.101 9 82.781 0 123.881z"/></symbol><symbol viewBox="0 0 304.36 304.36" id="vk" xmlns="http://www.w3.org/2000/svg"><path d="M261.945 175.576c10.096 9.857 20.752 19.131 29.807 29.982 4 4.822 7.787 9.798 10.684 15.394 4.105 7.955.387 16.709-6.746 17.184l-44.34-.02c-11.436.949-20.559-3.655-28.23-11.474-6.139-6.253-11.824-12.908-17.727-19.372-2.42-2.642-4.953-5.128-7.979-7.093-6.053-3.929-11.307-2.726-14.766 3.587-3.523 6.421-4.322 13.531-4.668 20.687-.475 10.441-3.631 13.186-14.119 13.664-22.414 1.057-43.686-2.334-63.447-13.641-17.422-9.968-30.932-24.04-42.691-39.971-22.895-31.021-40.428-65.108-56.186-100.15C-2.01 76.458.584 72.22 9.295 72.07c14.465-.281 28.928-.261 43.41-.02 5.879.086 9.771 3.458 12.041 9.012 7.826 19.243 17.402 37.551 29.422 54.521 3.201 4.518 6.465 9.036 11.113 12.216 5.142 3.521 9.057 2.354 11.476-3.374 1.535-3.632 2.207-7.544 2.553-11.434 1.146-13.383 1.297-26.743-.713-40.079-1.234-8.323-5.922-13.711-14.227-15.286-4.238-.803-3.607-2.38-1.555-4.799 3.564-4.172 6.916-6.769 13.598-6.769h50.111c7.889 1.557 9.641 5.101 10.721 13.039l.043 55.663c-.086 3.073 1.535 12.192 7.07 14.226 4.43 1.448 7.35-2.096 10.008-4.905 11.998-12.734 20.561-27.783 28.211-43.366 3.395-6.852 6.314-13.968 9.143-21.078 2.096-5.276 5.385-7.872 11.328-7.757l48.229.043c1.43 0 2.877.021 4.262.258 8.127 1.385 10.354 4.881 7.844 12.817-3.955 12.451-11.65 22.827-19.174 33.251-8.043 11.129-16.645 21.877-24.621 33.072-7.328 10.223-6.746 15.376 2.357 24.255zm0 0" fill-rule="evenodd" clip-rule="evenodd"/></symbol><symbol viewBox="0 0 242.667 242.667" id="vk-color" xmlns="http://www.w3.org/2000/svg"><path d="M0 0v242.667h242.667V0H0zm177.006 135.224l21.075 24.216c2.694 3.096.495 7.925-3.609 7.925h-23.783a14.878 14.878 0 0 1-10.13-3.982l-7.043-6.549c-7.948-6.954-11.326-9.339-14.505-9.339-3.179 0-3.974 2.384-3.974 8.544 0 6.159-1.192 11.326-19.472 11.326s-32.586-13.71-48.68-34.97c-16.094-21.26-23.247-44.11-23.247-44.11-.888-2.86 1.25-5.762 4.245-5.762h19.032a9.283 9.283 0 0 1 8.435 5.378c1.558 3.373 4.238 8.578 8.822 16.279 6.505 10.928 12.754 15.851 16.294 17.947 1.318.781 2.98-.184 2.98-1.716V94.199c0-3.43-1.239-6.744-3.49-9.332l-2.683-3.085c-.694-.798-.127-2.041.93-2.041h30.079a8.345 8.345 0 0 1 8.345 8.345v30.483c0 1.964 2.549 2.732 3.634 1.096l21.649-32.627a9.213 9.213 0 0 1 7.675-4.119h25.413c3.473 0 5.585 3.825 3.736 6.765l-22.487 35.741a8.242 8.242 0 0 0 .759 9.799z"/></symbol><symbol viewBox="0 0 512 512" id="yt" xmlns="http://www.w3.org/2000/svg"><path d="M490.24 113.92c-13.888-24.704-28.96-29.248-59.648-30.976C399.936 80.864 322.848 80 256.064 80c-66.912 0-144.032.864-174.656 2.912-30.624 1.76-45.728 6.272-59.744 31.008C7.36 138.592 0 181.088 0 255.904v.256c0 74.496 7.36 117.312 21.664 141.728 14.016 24.704 29.088 29.184 59.712 31.264C112.032 430.944 189.152 432 256.064 432c66.784 0 143.872-1.056 174.56-2.816 30.688-2.08 45.76-6.56 59.648-31.264C504.704 373.504 512 330.688 512 256.192v-.256c0-74.848-7.296-117.344-21.76-142.016zM192 352V160l160 96-160 96z"/></symbol></svg>